<svg xmlns="http://www.w3.org/2000/svg" xmlns:xlink="http://www.w3.org/1999/xlink" width="300" height="95.349" viewBox="0 0 300 95.349"><defs><style>.a{fill:none;}.b{fill:#00534c;}.c{clip-path:url(#a);}.d{clip-path:url(#b);}</style><clipPath id="a"><rect class="a" width="79.884" height="33.974"/></clipPath><clipPath id="b"><rect class="b" width="115.614" height="14.281"/></clipPath></defs><rect class="a" width="269.767" height="95.349"/><g transform="translate(0 23.256)"><rect class="a" width="109.302" height="48.837" transform="translate(0 0)"/><g transform="translate(14.79 7.34)"><g class="c"><path d="M17.959,18.726a2.048,2.048,0,0,1-3.979.68L7.573,1.208H0V34.59H7.573V23.329a.23.23,0,0,1,.4-.151L17.959,34.59h7.573V1.208H17.959Z" transform="translate(0 -0.912)"/><path d="M130.469,1.208h-4.38a3.523,3.523,0,0,0-3.39,2.565L113.992,34.59h7.046l4.094-14.49a.925.925,0,0,1,1.815.252V34.59h7.046V4.731a3.523,3.523,0,0,0-3.523-3.523" transform="translate(-86.063 -0.912)"/><path d="M227.663,0h-2.834a12.515,12.515,0,0,0-12.515,12.515v8.945a12.515,12.515,0,0,0,12.515,12.515h2.834a12.515,12.515,0,0,0,12.515-12.515V12.515A12.515,12.515,0,0,0,227.663,0m1.579,10.278-3.952,13.993a1.06,1.06,0,0,1-2.04-.576L227.2,9.7a1.06,1.06,0,1,1,2.04.576" transform="translate(-160.294 0)"/></g></g></g><g transform="translate(120.93 18.605)"><rect class="a" width="179.07" height="62.791"/><g transform="translate(50.009 27.069)"><path class="b" d="M0,.231V3.439H3.657V14.092H6.993V3.439H10.65V.231Z" transform="translate(0 -0.021)"/><path class="b" d="M12.5.231V14.092h9.541V10.921h-6.22V8.615H21.13v-3.1H15.825V3.4h6.008V.231Z" transform="translate(-0.962 -0.021)"/><g transform="translate(0 0)"><g class="d"><path class="b" d="M30.73,14.281a6.836,6.836,0,0,1-6.993-7.14A6.845,6.845,0,0,1,30.748,0a6.53,6.53,0,0,1,5.328,2.466l.195.253L33.933,5.03l-.259-.319a3.481,3.481,0,0,0-2.787-1.4,3.533,3.533,0,0,0-3.543,3.827,3.533,3.533,0,0,0,3.543,3.827,3.449,3.449,0,0,0,2.785-1.415l.259-.323,2.339,2.313-.193.253a6.516,6.516,0,0,1-5.347,2.485" transform="translate(-0.282 0)"/><path class="b" d="M52.273,14.069h-3.6L48.455,8.82c-.033-.815-.067-1.779-.089-2.816-.312,1.068-.609,2.008-.8,2.609L45.892,13.86H43.057L41.582,8.644c-.2-.73-.4-1.513-.591-2.3-.035.884-.071,1.748-.11,2.522l-.26,5.207H37.157L38.035.534h4.54l1.345,4.543c.306,1.1.578,2.166.8,3.157.255-1,.561-2.128.886-3.181L47.073.534h4.462Z" transform="translate(-0.441 -0.013)"/><rect class="b" width="3.572" height="13.832" transform="translate(54.5 0.225)"/><path class="b" d="M70.837,14.062H61.132V.23H64.7v10.63h6.133Z" transform="translate(-0.725 -0.006)"/><path class="b" d="M82.2,14.062H71.992V.23h9.985V3.394H75.546V5.508h5.679V8.6H75.546v2.3H82.2Z" transform="translate(-0.854 -0.006)"/><path class="b" d="M95.009,14.062H92.129L87.574,6.832v7.229H84.037V.23h2.9l4.538,7.227V.23h3.538Z" transform="translate(-0.997 -0.006)"/><rect class="b" width="3.572" height="13.832" transform="translate(96.349 0.225)"/><path class="b" d="M109.769,14.28a6.947,6.947,0,0,1-7.064-7.14,7.064,7.064,0,1,1,14.127,0,6.947,6.947,0,0,1-7.063,7.14m0-10.966c-2.036,0-3.457,1.573-3.457,3.827s1.422,3.827,3.457,3.827,3.457-1.573,3.457-3.827-1.422-3.827-3.457-3.827" transform="translate(-1.218 0)"/></g></g></g><path class="b" d="M162.148,2.073V0h-.662a19.847,19.847,0,0,0-13.712,5.474A19.845,19.845,0,0,0,134.069,0h-.662V2.073h.658a17.726,17.726,0,0,1,12.277,4.911,20.463,20.463,0,0,0-1.709,2.344,14.834,14.834,0,0,0-10.565-4.409h-.662V6.994h.658a12.742,12.742,0,0,1,9.519,4.265,18.934,18.934,0,0,0-1.183,3.2,9.8,9.8,0,0,0-8.333-4.613h-.662v2.073h.658a7.622,7.622,0,0,1,7.668,7.56v9.758h2.1V19.477a17.124,17.124,0,0,1,1.18-6.252,12.279,12.279,0,0,1,1.709,6.254v9.758h2.106V19.48a12.279,12.279,0,0,1,1.709-6.254,17.124,17.124,0,0,1,1.18,6.254v9.758h2.1V19.48a7.622,7.622,0,0,1,7.668-7.56h.654V9.844h-.662a9.8,9.8,0,0,0-8.333,4.613,18.936,18.936,0,0,0-1.183-3.2,12.742,12.742,0,0,1,9.519-4.265h.654V4.919h-.662a14.834,14.834,0,0,0-10.565,4.408A20.468,20.468,0,0,0,149.2,6.984a17.726,17.726,0,0,1,12.277-4.911ZM149.49,11.016a14.505,14.505,0,0,0-1.712,3.081,14.5,14.5,0,0,0-1.712-3.081,17.619,17.619,0,0,1,1.712-2.487,17.617,17.617,0,0,1,1.712,2.487" transform="translate(-118.639 17.405)"/></g><path d="M107.517,26.569c-11.822-7.352-5.867-13.311,1.478-1.479,7.345-11.832,13.3-5.872,1.478,1.479,11.822,7.352,5.867,13.311-1.478,1.479-7.345,11.832-13.3,5.872-1.478-1.479" transform="translate(4.078 29.188)"/></svg>