<?xml version="1.0" encoding="utf-8"?>
<!-- Generator: Adobe Illustrator 27.5.0, SVG Export Plug-In . SVG Version: 6.00 Build 0)  -->
<svg version="1.1" xmlns="http://www.w3.org/2000/svg" xmlns:xlink="http://www.w3.org/1999/xlink" x="0px" y="0px"
	 viewBox="0 0 750 500" style="enable-background:new 0 0 750 500;" xml:space="preserve">
<g id="BACKGROUND">
	<rect style="fill:#F5F8FB;" width="750" height="500"/>
</g>
<g id="OBJECTS">
	<g>
		<g>
			<g>
				<path style="fill:#D1DCF1;" d="M111.634,450.084c0,0-96.412-66.841-54.359-182.224c34.26-94.003,131.698-55.918,181.627-137.681
					c34.996-57.308,115.826-102.07,197.592-64.065c112.218,52.161,55.371,160.002,137.49,165.521
					c83.957,5.643,121.52,40.792,128.82,104.44c7.184,62.641-59.413,114.008-59.413,114.008H111.634z"/>
				<path style="fill:#BBC7DA;" d="M700.143,369.257c2.8-10.513,3.982-21.655,2.66-33.181
					c-7.299-63.648-44.863-98.797-128.82-104.44c-82.119-5.52-25.272-113.36-137.49-165.521
					c-81.765-38.006-162.596,6.756-197.592,64.065C188.973,211.942,91.535,173.857,57.274,267.86
					c-14.519,39.838-12.529,73.886-3.703,101.397H700.143z"/>
				<g>
					<path style="fill:#A9B8CB;" d="M162.032,187.349c-7.985,2.952-16.001,5.68-23.891,8.547l157.253,173.361h27.606
						L162.032,187.349z"/>
					<path style="fill:#A9B8CB;" d="M254.865,108.528c-6.034,6.9-11.393,14.167-15.963,21.651c-0.43,0.705-0.873,1.379-1.31,2.066
						l219.896,237.012h41.008L254.865,108.528z"/>
					<path style="fill:#A9B8CB;" d="M108.107,208.769c-11.124,5.936-21.448,13.341-30.387,23.542
						c38.328,44.029,82.638,94.978,119.127,136.947h55.885L108.107,208.769z"/>
					<path style="fill:#A9B8CB;" d="M304.321,69.607c-5.278,2.749-10.38,5.773-15.288,9.031l273.138,290.62h11.997L304.321,69.607z"
						/>
					<path style="fill:#A9B8CB;" d="M658.592,369.254h-29.747l-212.68-230.725l-2.33-2.533l-73.649-79.901
						c13.567-3.273,27.792-4.691,42.382-3.82c1.662,0.091,3.323,0.223,4.985,0.385c7.143,0.669,14.357,1.895,21.622,3.718
						L658.592,369.254z"/>
				</g>
				<g>
					<defs>
						<path id="SVGID_1_" d="M111.634,450.084c0,0-96.412-66.841-54.359-182.224c34.26-94.003,131.698-55.918,181.627-137.681
							c34.996-57.308,115.826-102.07,197.592-64.065c112.218,52.161,55.371,160.002,137.49,165.521
							c83.957,5.643,121.52,40.792,128.82,104.44c7.184,62.641-59.413,114.008-59.413,114.008H111.634z"/>
					</defs>
					<clipPath id="SVGID_00000030446123065315967540000014825942737037783722_">
						<use xlink:href="#SVGID_1_"  style="overflow:visible;"/>
					</clipPath>
					<g style="clip-path:url(#SVGID_00000030446123065315967540000014825942737037783722_);">
						<g>
							<path style="fill:#FFFFFF;" d="M735.711,372.594H29.971V-28.954h705.74V372.594z M38.077,364.488h689.528V-20.848H38.077
								V364.488z"/>
						</g>
						<g>
							<g>
								<rect x="143.982" y="-24.901" style="fill:#FFFFFF;" width="8.106" height="393.441"/>
							</g>
							<g>
								<rect x="261.385" y="-24.901" style="fill:#FFFFFF;" width="8.106" height="393.441"/>
							</g>
							<g>
								<rect x="378.788" y="-24.901" style="fill:#FFFFFF;" width="8.106" height="393.441"/>
							</g>
							<g>
								<rect x="496.191" y="-24.901" style="fill:#FFFFFF;" width="8.106" height="393.441"/>
							</g>
							<g>
								<rect x="613.594" y="-24.901" style="fill:#FFFFFF;" width="8.106" height="393.441"/>
							</g>
						</g>
						<g>
							<g>
								<rect x="34.024" y="167.767" style="fill:#FFFFFF;" width="697.634" height="8.106"/>
							</g>
						</g>
					</g>
				</g>
				<path style="fill:#4E46A0;" d="M688.241,446.23h-610.8c-2.201,0-3.984,1.784-3.984,3.984c0,2.201,1.784,3.984,3.984,3.984h610.8
					c2.2,0,3.984-1.784,3.984-3.984C692.225,448.014,690.441,446.23,688.241,446.23z"/>
				<g>
					<rect x="371.587" y="372.753" style="fill:#1D2634;" width="13.276" height="28.556"/>
					<rect x="367.305" y="352.293" style="fill:#1D2634;" width="21.839" height="28.556"/>
					<rect x="367.305" y="394.51" style="fill:#1D2634;" width="21.839" height="15.96"/>
					<g>
						<polygon style="fill:#1D2634;" points="389.145,410.47 378.225,410.47 367.305,410.47 324.686,425.808 324.686,431.802 
							371.587,421.603 374.579,436.94 378.225,436.94 381.87,436.94 384.863,421.603 431.764,431.802 431.764,425.808 						"/>
						
							<ellipse transform="matrix(0.1607 -0.987 0.987 0.1607 -161.2896 691.0629)" style="fill:#1D2634;" cx="325.684" cy="440.366" rx="9.848" ry="9.848"/>
						
							<ellipse transform="matrix(0.1725 -0.985 0.985 0.1725 -78.8771 786.8394)" style="fill:#1D2634;" cx="428.875" cy="440.366" rx="9.848" ry="9.848"/>
						<circle style="fill:#1D2634;" cx="378.225" cy="443.791" r="9.848"/>
					</g>
					<path style="fill:#1D2634;" d="M416.541,343.218c0,0,0.377,10.067-3.076,13.52c-3.453,3.453-57.482,13.791-64.866,10.837
						s-8.702-11.917-8.702-11.917L416.541,343.218z"/>
					<path style="fill:#1D2634;" d="M311.239,326.471c0,2.141,3.099,32.036,18.448,32.036c15.349,0,32.319-5.061,32.319-5.061
						l-4.678-11.066c0,0-14.484,9.544-23.19,0.839c-8.706-8.706-7.485-24.027-7.485-24.027L311.239,326.471z"/>
					<path style="fill:#4E46A0;" d="M314.408,331.767c-5.725,0.767-11.232-2.449-13.353-7.821
						c-8.905-22.551-28.987-68.428-40.985-89.507c-7.384-12.973,23.978-24.645,42.39-15.17
						c18.412,9.474,43.549,85.262,43.549,98.107C346.009,326.143,326.68,330.123,314.408,331.767z"/>
					<path style="fill:#3F3B8E;" d="M302.459,219.269c-7.925-4.078-18.248-4.236-26.849-2.061
						c3.536,3.249,7.271,8.372,10.312,16.478c8.443,22.504,27.31,83.165,47.029,87.977c3.352,0.818,6.872,1.124,10.407,0.938
						c1.662-1.518,2.65-3.249,2.65-5.224C346.009,304.531,320.871,228.743,302.459,219.269z"/>
					<path style="fill:#4E46A0;" d="M333.852,339.093c2.128-0.476,85.188-17.43,97.747-17.43c18.148,0,29.07,29.796,13.808,29.796
						s-15.625-6.904-43.968,0c-28.343,6.904-66.044,18.319-73.463,10.901C320.558,354.942,327.069,340.61,333.852,339.093z"/>
					<path style="fill:#3F3B8E;" d="M431.599,321.663c-12.559,0-95.619,16.954-97.747,17.43c-1.759,0.393-3.498,1.654-4.982,3.427
						c-1.344,3.98-0.742,9.773,14.145,9.773c22.678,0,62.888-13.444,85.86-13.444c9.823,0,16.28,5.514,20.787,11.494
						C458.034,344.958,447.65,321.663,431.599,321.663z"/>
				</g>
				<g>
					<path style="fill:#1D2634;" d="M445.669,116.685l-29.504,21.844l-11.601,8.592l-2.036-2.746l11.307-8.379l26.758-19.808
						l-58.026-63.912c1.662,0.091,3.323,0.223,4.985,0.385L445.669,116.685z"/>
				</g>
				<g>
					
						<rect x="406.061" y="113.397" transform="matrix(0.0761 -0.9971 0.9971 0.0761 277.3144 526.9264)" style="fill:#1D2634;" width="33.846" height="0.857"/>
				</g>
				<path style="fill:#1D2634;" d="M445.672,116.438c0,2.112-1.712,3.825-3.825,3.825c-2.112,0-3.824-1.712-3.824-3.825
					c0-2.112,1.712-3.825,3.824-3.825C443.96,112.613,445.672,114.325,445.672,116.438z"/>
				<g>
					<path style="fill:#1D2634;" d="M392.983,282.411c0,0,65.958-15.617,72.516-15.617c6.558,0,13.544,23.208,1.755,31.068
						c-11.79,7.86-91.663,32.578-103.461,32.578s-16.447-28.623-14.908-30.161C350.423,298.739,392.983,282.411,392.983,282.411z"/>
					<g>
						<path style="fill:#D88C74;" d="M480.465,421.074c0,2.035,2.881,11.004,2.425,14.413c-0.172,1.29,14.289,1.125,13.799,0
							c-3.296-7.568-3.067-15.946-3.067-15.946L480.465,421.074z"/>
						<path style="fill:#DC4467;" d="M483.627,429.105c2.485,0.978,6.676,2.188,12.195,2.188c0,0,16.451,4.009,19.606,5.641
							c4.285,2.216,3.398,7.802,3.398,7.802s-33.985,2.807-36.792,0c-1.98-1.98-1.662-9.547-1.303-13.838
							C480.852,429.478,482.3,428.583,483.627,429.105z"/>
						<path style="fill:#FFFFFF;" d="M480.791,441.553c0,0,5.35,2.15,15.044,2.15s23.03-1.075,23.03-1.075s1.275,2.608,0,3.882
							c-1.274,1.275-31.214,3.398-37.42,0C481.444,446.511,479.842,444.723,480.791,441.553z"/>
						<path style="fill:#1D2634;" d="M334.138,305.55c0,0-3.987,31.257,21.746,40.427c25.733,9.17,104.82-26.72,104.82-26.72
							l12.915,106.284l21.447-2.431c0,0-3.797-126.995-10.783-133.981c-6.986-6.986-108.614,5.942-108.614,5.942L334.138,305.55z"/>
						<path style="fill:#DC4467;" d="M401.026,205.816c0,0-23.64-8.63-28.6-9.377c-4.773-0.718-38.352-2.175-53.947,10.713
							c-4.412,1.789-18.753,25.549-20.403,29.829c-1.683,4.363,4.691,23.362,4.691,23.362s8.047-0.071,12.52-8.203
							c3.359-6.106,6.792-11.43,8.419-15.494l0,0c9.247,32.241,5.136,64.032,5.983,70.82c0,0,13.192,4.761,36.201-3.753
							c23.009-8.514,27.095-21.302,27.095-21.302c-3.45-5.929-12.698-23.477-9.273-35.946c0.453-1.652,3.365-11.942-2.306-20.989
							c0,0,32.194,3.796,31.934-1.914C413.076,217.852,401.026,205.816,401.026,205.816z"/>
						<path style="fill:#C42A53;" d="M365.888,303.713c23.009-8.514,27.095-21.302,27.095-21.302
							c-0.975-1.675-2.412-4.278-3.896-7.431c-9.986,7.997-30.515,22.931-40.203,19.03c-13.072-5.263-13.592-61.06-22.232-69.7
							c-8.64-8.64-19.62,22.768-19.62,22.768s-1.479,5.33-3.408,13.192c2.185-0.272,8.07-1.603,11.661-8.131
							c3.359-6.106,6.792-11.43,8.419-15.494l0,0c9.247,32.241,5.136,64.032,5.983,70.82
							C329.686,307.466,342.879,312.226,365.888,303.713z"/>
						<path style="fill:#C42A53;" d="M408.408,217.12c-9.796,1.889-35.424-2.781-33.034-0.159c2.389,2.621,6.03,8.515,6.03,8.515
							s32.194,3.796,31.934-1.914c-0.083-1.813-1.355-4.263-3.051-6.763C409.663,216.892,409.036,216.999,408.408,217.12z"/>
						<g>
							
								<rect x="395.318" y="144.939" transform="matrix(0.8626 0.5059 -0.5059 0.8626 132.4445 -180.7897)" style="fill:#1D2634;" width="7.453" height="16.976"/>
							<path style="fill:#1D2634;" d="M400.78,156.605l-5.357-3.142c-2.071-1.215-4.735-0.52-5.949,1.551l-15.29,26.072
								c-1.215,2.071-0.52,4.735,1.551,5.949l5.357,3.142c2.071,1.215,4.735,0.52,5.949-1.551l15.29-26.072
								C403.546,160.483,402.851,157.819,400.78,156.605z"/>
							
								<rect x="382.176" y="152.957" transform="matrix(0.8626 0.5059 -0.5059 0.8626 138.6707 -174.4322)" style="fill:#4E46A0;" width="16.562" height="30.225"/>
							
								<rect x="376.236" y="173.832" transform="matrix(0.8626 0.5059 -0.5059 0.8626 142.3106 -170.7153)" style="fill:#6054BA;" width="18.399" height="5.597"/>
							<path style="fill:#4E46A0;" d="M408.19,148.471c-1.504,2.564-4.802,3.424-7.366,1.92c-2.564-1.504-3.424-4.802-1.92-7.366
								c1.504-2.564,4.802-3.424,7.366-1.92S409.694,145.907,408.19,148.471z"/>
							<path style="fill:#1D2634;" d="M406.288,147.355c-0.888,1.514-2.834,2.021-4.348,1.133c-1.513-0.888-2.021-2.834-1.133-4.348
								s2.834-2.021,4.348-1.133C406.668,143.895,407.176,145.842,406.288,147.355z"/>
						</g>
						<g>
							<path style="fill:#D88C74;" d="M333.443,201.32c0,0,1.887,9.703,12.78,10.253c10.893,0.55,9.924-9.56,8.582-13.576
								c-1.341-4.016-4.764-16.442-4.764-16.442l-20.354,3.864L333.443,201.32z"/>
							<path style="fill:#C36F59;" d="M353.633,199.962c0.584,0.059,1.142,0.097,1.699,0.134c-0.144-0.794-0.331-1.512-0.527-2.099
								c-1.341-4.016-4.764-16.441-4.764-16.441l-20.354,3.864l0.863,3.653C333.289,193.305,339.456,198.54,353.633,199.962z"/>
							<path style="fill:#D88C74;" d="M318.526,165.446c0,0,5.76,20.172,17.077,25.145c11.317,4.973,25.504,3.294,28.309-10.685
								c2.805-13.979-4.716-35.895-16.951-40.461C334.726,134.879,310.221,142.011,318.526,165.446z"/>
							<path style="fill:#1D2634;" d="M317.386,142.915c0,0,1.68-6.488-8.728-7.906s-22.613,14.784-12.417,27.121
								c13.923,16.846-0.158,22.552,1.11,25.029c1.268,2.477,14.308,9.878,22.77-6.27
								C328.584,164.74,317.386,142.915,317.386,142.915z"/>
							<path style="fill:#DC4467;" d="M317.816,139.124c0,0-2.017-7.675-8.676-1.179c-6.659,6.496-7.822,16.455-1.391,17.661
								C314.179,156.812,317.816,139.124,317.816,139.124z"/>
							<path style="fill:#1D2634;" d="M329.248,185.962c0,0-15.379-4.6-20.454-19.872c-5.075-15.272,1.425-26.237,11.739-31.658
								c10.314-5.421,36.948-1.572,38.305,12.579c0.93,9.704-18.18,11.182-24.602,28.233c-0.74,1.964-0.096-8.92-1.343-7.283
								C330.688,170.859,329.946,182.236,329.248,185.962z"/>
							<path style="fill:#1D2634;" d="M347.377,167.87c0.115,1.202-0.766,2.27-1.968,2.385c-1.202,0.115-2.27-0.766-2.385-1.968
								c-0.115-1.202,0.766-2.27,1.967-2.385C346.194,165.787,347.262,166.668,347.377,167.87z"/>
							<path style="fill:#1D2634;" d="M360.246,164.256c0.115,1.202-0.766,2.27-1.967,2.385c-1.202,0.115-2.27-0.766-2.385-1.967
								c-0.115-1.202,0.766-2.27,1.968-2.385C359.063,162.173,360.131,163.054,360.246,164.256z"/>
							<path style="fill:#C36F59;" d="M353.901,164.792c0,0,6.084,5.331,4.803,7.387c-1.282,2.056-4.03,1.865-3.52,1.247
								c0.509-0.618,2.189-0.892,1.802-2.561C356.598,169.196,353.901,164.792,353.901,164.792z"/>
							<path style="fill:#A71C41;" d="M348.884,176.532c0,0,5.229,2.342,8.443,1.465c0,0-0.556,3.693-2.708,3.785
								C352.467,181.876,349.772,179.859,348.884,176.532z"/>
							<g>
								<path style="fill:#4E46A0;" d="M336.485,167.043c1.726,5.43-1.277,11.232-6.708,12.957
									c-5.43,1.726-11.231-1.277-12.957-6.708s1.277-11.231,6.708-12.957S334.759,161.613,336.485,167.043z"/>
								<g>
									<path style="fill:#4E46A0;" d="M318.159,166.032c-3.977-13.104-2.495-20.221-2.429-20.518l0.837,0.183
										c-0.016,0.071-1.492,7.222,2.412,20.086L318.159,166.032z"/>
								</g>
								<g>
									<path style="fill:#4E46A0;" d="M324.536,164.381c-3.327-8.789-3.427-19.419-3.428-19.526l0.857-0.005
										c0.001,0.105,0.102,10.585,3.373,19.228L324.536,164.381z"/>
								</g>
								
									<ellipse transform="matrix(0.953 -0.3029 0.3029 0.953 -36.4068 106.5156)" style="fill:#6054BA;" cx="325.196" cy="170.631" rx="8.789" ry="10.317"/>
								<path style="fill:#6054BA;" d="M333.251,132.098c0,0-4.12-3.386-11.145,0.379c-5.086,2.726-9.134,10.941-7.631,14.239
									c1.503,3.298,8.581,0.364,9.694-1.641C325.282,143.069,325.359,132.736,333.251,132.098z"/>
							</g>
							<path style="fill:#1D2634;" d="M354.107,158.329c0.393-0.262,1.021-0.241,1.479-0.288c1.196-0.121,2.516-0.257,3.698,0.031
								c0.291,0.071,0.678,0.19,0.807,0.493c0.502,1.175-5.404,1.63-6.278,1.213C353.11,159.443,353.661,158.634,354.107,158.329z"
								/>
							<path style="fill:#1D2634;" d="M344.929,160.816c-0.47-0.042-1.011,0.277-1.436,0.456c-1.109,0.466-2.332,0.979-3.232,1.798
								c-0.221,0.201-0.504,0.492-0.473,0.819c0.122,1.272,5.525-1.157,6.093-1.941C346.338,161.316,345.466,160.87,344.929,160.816
								z"/>
							<path style="fill:#C36F59;" d="M345.657,173.733c0.094,0.982-0.626,1.855-1.608,1.949c-0.982,0.094-1.855-0.626-1.949-1.608
								c-0.094-0.982,0.626-1.855,1.608-1.949C344.69,172.031,345.563,172.751,345.657,173.733z"/>
							<path style="fill:#C36F59;" d="M363.784,168.834c0.094,0.982-0.626,1.855-1.608,1.949c-0.982,0.094-1.855-0.626-1.949-1.608
								c-0.094-0.982,0.626-1.855,1.608-1.949C362.817,167.132,363.69,167.852,363.784,168.834z"/>
						</g>
						<path style="fill:#D88C74;" d="M394.345,178.204c0,0,3.245,42.53,12.668,45.37c9.423,2.84,13.895-2.58,9.745-15.492
							c-4.149-12.912-12.07-30.454-12.07-30.454s-6.035-15.227-10.06-18.169c-4.025-2.942-11.246-0.17-13.934,2.168
							c-2.687,2.337-3.704,9.09-1.976,9.756c1.728,0.666,4.827-1.711,4.827-1.711S387.101,176.403,394.345,178.204z"/>
						<path style="fill:#D88C74;" d="M297.113,206.334c0,0-8.801,42.527-1.855,51.35c6.946,8.823,18.004-3.081,17.2-11.477
							c-0.805-8.395-5.362-34.73-5.362-34.73s5.962-4.977,6.215-9.407c0.253-4.43,0.879-1.44,2.861-1.969
							c1.983-0.529,2.572-4.991,1.003-7.213c-1.569-2.222-12.507-3.207-12.507-3.207s3.589-15.594-0.248-13.193
							c-3.836,2.401-4.499,16.698-4.499,16.698s-1.527-12.393-3.827-8.105C293.792,189.369,297.113,206.334,297.113,206.334z"/>
					</g>
					<g>
						<path style="fill:#FFFFFF;" d="M530.725,359.901c0,0,5.641,14.693,20.037,22.47c12.829,6.931,16.621-7.243,14.531-10.955
							c-0.779-1.383-4.322-8.254-10.638-10.88s-15.112-10.623-19.645-8.026C530.477,355.107,530.725,359.901,530.725,359.901z"/>
						<path style="fill:#DC4467;" d="M530.339,358.909c0,0,0.546,2.507,5.365,7.934c4.819,5.427,18.22,21.108,26.473,13.467
							c7.938-7.35,0.292-16.489-18.115-28.411c-2.203-1.427-4.926-1.958-7.451-1.241
							C533.914,351.425,531.043,353.534,530.339,358.909z"/>
						<path style="fill:#D88C74;" d="M527.622,355.112c0,0,9.467,14.21,13.633,13.565c4.166-0.645,11.862-4.785,8.809-8.92
							c-3.054-4.135-14.847-10.867-14.847-10.867L527.622,355.112z"/>
					</g>
					<path style="fill:#1D2634;" d="M452.517,283.74c-1.82-3.475-1.634-7.674,0.585-10.909c2.026-2.953,5.514-5.844,11.44-6.037
						c12.344-0.402,77.544,81.091,77.544,81.091l-14.464,15.157c0,0-50.803-51.237-61.636-61.387
						C459.236,295.332,454.858,288.21,452.517,283.74z"/>
				</g>
				<g>
					<g>
						<path style="fill:#1D2634;" d="M237.933,287.057l-38.916,158.775c-0.547,2.23,1.142,4.382,3.438,4.382
							c1.588,0,2.982-1.058,3.409-2.587l41.522-160.57H237.933z"/>
						<path style="fill:#1D2634;" d="M276.469,287.057l-38.916,158.775c-0.547,2.23,1.142,4.382,3.438,4.382
							c1.588,0,2.982-1.058,3.409-2.587l41.522-160.57H276.469z"/>
					</g>
					<g>
						<path style="fill:#1D2634;" d="M611.139,287.057l38.916,158.775c0.547,2.23-1.142,4.382-3.438,4.382
							c-1.588,0-2.982-1.058-3.409-2.587l-41.522-160.57H611.139z"/>
						<path style="fill:#1D2634;" d="M572.603,287.057l38.916,158.775c0.547,2.23-1.142,4.382-3.438,4.382
							c-1.588,0-2.982-1.058-3.409-2.587l-41.522-160.57H572.603z"/>
					</g>
					<path style="fill:#E8CA62;" d="M646.174,283.073H202.898c-2.201,0-3.984,1.784-3.984,3.984s1.784,3.984,3.984,3.984h443.276
						c2.2,0,3.984-1.784,3.984-3.984S648.375,283.073,646.174,283.073z"/>
				</g>
				<g>
					<rect x="388.656" y="279.575" style="fill:#ACB5C3;" width="65.168" height="3.498"/>
					<polygon style="fill:#ACB5C3;" points="545.115,283.073 449.665,283.073 461.301,218.515 556.751,218.515 					"/>
					<polygon style="fill:#FFFFFF;" points="546.719,283.073 451.268,283.073 462.904,218.515 558.355,218.515 					"/>
				</g>
				<circle style="fill:#D1DCF1;" cx="506.926" cy="250.794" r="12.274"/>
				<g>
					<g>
						<path style="fill:#4E46A0;" d="M441.317,181.649c-0.592-0.592-0.592-1.553,0-2.145c12.252-12.252,12.252-32.186,0-44.438
							c-0.592-0.592-0.592-1.553,0-2.145c0.592-0.592,1.553-0.592,2.145,0c13.434,13.434,13.434,35.294,0,48.729
							C442.87,182.241,441.909,182.241,441.317,181.649z"/>
					</g>
					<g>
						<path style="fill:#4E46A0;" d="M434.693,175.025c-0.592-0.592-0.592-1.553,0-2.145c8.599-8.6,8.6-22.592,0-31.191
							c-0.592-0.592-0.592-1.553,0-2.145c0.592-0.592,1.553-0.592,2.145,0c9.782,9.782,9.782,25.699,0,35.482
							C436.246,175.618,435.286,175.618,434.693,175.025z"/>
					</g>
					<g>
						<path style="fill:#4E46A0;" d="M428.035,168.367c-0.592-0.592-0.592-1.553,0-2.145c4.928-4.928,4.928-12.947,0-17.875
							c-0.592-0.592-0.592-1.553,0-2.145c0.592-0.592,1.553-0.592,2.145,0c6.111,6.111,6.111,16.054,0,22.166
							C429.588,168.96,428.628,168.96,428.035,168.367z"/>
					</g>
				</g>
				<path style="fill:#DC4467;" d="M234.79,57.254v27.306c-1.473-0.986-3.243-1.563-5.148-1.563c-5.118,0-9.268,4.149-9.268,9.268
					c0,5.118,4.149,9.267,9.268,9.267c5.118,0,9.267-4.149,9.267-9.267V61.879l20.988-8.546v22.68
					c-1.473-0.986-3.243-1.563-5.149-1.563c-5.118,0-9.267,4.149-9.267,9.267c0,5.118,4.149,9.267,9.267,9.267
					c5.118,0,9.268-4.149,9.268-9.267V45.802L234.79,57.254z"/>
				<path style="fill:#FFDC48;" d="M339.167,78.378v23.961c-1.292-0.865-2.846-1.371-4.518-1.371c-4.491,0-8.133,3.641-8.133,8.132
					c0,4.491,3.641,8.132,8.133,8.132c4.491,0,8.132-3.641,8.132-8.132V82.438l18.418-7.499V94.84
					c-1.292-0.865-2.846-1.371-4.518-1.371c-4.491,0-8.132,3.641-8.132,8.132c0,4.491,3.641,8.132,8.132,8.132
					c4.491,0,8.132-3.641,8.132-8.132V68.329L339.167,78.378z"/>
				<path style="fill:#4E46A0;" d="M287.963,84.191h-3.688v32.093c-1.318-0.883-2.904-1.399-4.609-1.399
					c-4.582,0-8.297,3.715-8.297,8.297c0,4.582,3.715,8.297,8.297,8.297c4.582,0,8.297-3.715,8.297-8.297V92.341
					c8.389,1.246,12.513,8.15,12.513,8.15C299.325,86.3,287.963,84.191,287.963,84.191z"/>
				<g>
					<path style="fill:#4266CF;" d="M150.212,186.725l-9.778-15.009c2.747-4.718,4.327-10.199,4.327-16.052
						c0-17.652-14.31-31.963-31.963-31.963c-17.653,0-31.963,14.31-31.963,31.963c0,17.653,14.31,31.963,31.963,31.963
						c8.027,0,15.356-2.966,20.97-7.852L150.212,186.725z"/>
					<circle style="fill:#FFFFFF;" cx="94.415" cy="155.152" r="5.447"/>
					<circle style="fill:#FFFFFF;" cx="112.798" cy="155.152" r="5.447"/>
					<circle style="fill:#FFFFFF;" cx="131.181" cy="155.152" r="5.447"/>
				</g>
				<g>
					<path style="fill:#FFDC48;" d="M510.937,116.191l8.761-13.448c-2.461-4.228-3.877-9.138-3.877-14.382
						c0-15.817,12.822-28.639,28.639-28.639c15.817,0,28.639,12.822,28.639,28.639S560.277,117,544.46,117
						c-7.192,0-13.76-2.657-18.789-7.035L510.937,116.191z"/>
					<circle style="fill:#FFFFFF;" cx="560.932" cy="87.901" r="4.88"/>
					<circle style="fill:#FFFFFF;" cx="544.46" cy="87.901" r="4.88"/>
					<circle style="fill:#FFFFFF;" cx="527.989" cy="87.901" r="4.88"/>
				</g>
				<g>
					<g>
						<path style="fill:#4266CF;" d="M228.267,260.793c0,0,0.642-6.683-9.142-11.334c0,0,1.283-5.453-8.661-6.897
							c-9.944-1.443-19.087,12.992-19.087,12.992s8.661,2.717,15.558,1.84c6.897-0.877,12.03-5.767,12.03-5.767
							s4.491-1.313,7.057,9.166H228.267z"/>
						<path style="fill:#4266CF;" d="M231.14,258.823c0,0,1.899-7.793,8.198-9.513c0,0,2.73-9.744,9.743-8.183
							c7.013,1.561,14.49,12.263,14.49,12.263s-9.414,4.641-16.128,2.325c-6.714-2.316-7.949-4.892-7.949-4.892
							s-5.689,1.198-5.849,8.557L231.14,258.823z"/>
						<path style="fill:#395CBC;" d="M229.31,258.28c0,0-0.962-10.426-4.331-15.077c0,0,1.708-6.969-2.711-11.388
							c-4.419-4.419-19.102-8.982-19.102-8.982s1.452,7.538,5.778,13.473c4.326,5.935,15.073,7.699,15.073,7.699
							s4.669,4.17,3.377,15.077L229.31,258.28z"/>
						<path style="fill:#395CBC;" d="M232.06,258.278c0,0,0.894-8.871,5.012-15.929c0,0,6.353,0.793,11.185-4.906
							c4.832-5.699,6.36-15.855,6.36-15.855s-11.597,1.958-15.527,7.357c-3.93,5.398-2.803,13.238-2.803,13.238
							s-5.125,6.396-5.796,15.763L232.06,258.278z"/>
						<path style="fill:#4266CF;" d="M231.154,258.444c0,0-2.425-9.716-1.176-18.724c0,0,6.22-1.543,8.635-9.381
							c2.415-7.838,0.109-19.151,0.109-19.151s-10.102,6.419-11.786,13.6c-1.684,7.182,2.249,15.05,2.249,15.05
							s-2.432,8.685,0.382,18.842L231.154,258.444z"/>
					</g>
					<polygon style="fill:#1D2634;" points="239.169,283.073 220.671,283.073 217.644,257.393 242.195,257.393 					"/>
				</g>
				<g>
					<g>
						<path style="fill:#4E46A0;" d="M182.38,390.45c-0.002-1.239-0.33-30.384-25.759-33.453l0.308-2.551
							c27.7,3.344,28.021,35.677,28.021,36.003L182.38,390.45z"/>
					</g>
					<path style="fill:#4E46A0;" d="M170.785,359.662c0,0-6.56-19.871-31.423-12.191c-24.862,7.68-19.013,21.164,0,21.164
						C158.375,368.635,170.785,359.662,170.785,359.662z"/>
				</g>
				<g>
					<g>
						<path style="fill:#3F3B8E;" d="M187.009,394.548c-0.012-0.397-1.389-39.898-20.709-55.609
							c-6.853-5.574-15.256-7.522-24.974-5.794l-0.45-2.53c10.488-1.865,19.589,0.266,27.049,6.334
							c20.232,16.458,21.603,55.855,21.651,57.524L187.009,394.548z"/>
					</g>
					<path style="fill:#3F3B8E;" d="M167.925,336.948c0,0-2.823-15.456-24.76-18.517c-21.938-3.06-34.515,16.108-23.693,20.418
						C130.295,343.159,160.888,343.986,167.925,336.948z"/>
				</g>
				<g>
					<g>
						<path style="fill:#3F3B8E;" d="M189.646,392.184c-0.029-1.927-0.456-47.49,22.512-73.752l1.934,1.691
							c-22.323,25.526-21.884,71.56-21.876,72.022L189.646,392.184z"/>
					</g>
					<path style="fill:#3F3B8E;" d="M201.866,336.978c0,0-8.977-12.539,3.016-32.137c11.992-19.598,31.791-22.928,34.833-11.408
						S221.081,332.844,201.866,336.978z"/>
				</g>
				<g>
					<g>
						<path style="fill:#4E46A0;" d="M189.291,390.665c0.268-1.908,6.345-47.066-13.187-75.976l-2.128,1.438
							c18.983,28.099,12.836,73.722,12.771,74.18L189.291,390.665z"/>
					</g>
					<path style="fill:#4E46A0;" d="M184.015,334.369c0,0,10.463-11.328,0.995-32.262c-9.468-20.934-28.7-26.695-33.149-15.641
						C147.413,297.519,165.462,327.883,184.015,334.369z"/>
				</g>
				<g>
					<g>
						<path style="fill:#4E46A0;" d="M195.628,392.33l-2.547-0.331c0.265-2.04,6.804-50.051,34.218-56.189l0.562,2.507
							C202.183,344.067,195.691,391.848,195.628,392.33z"/>
					</g>
					<path style="fill:#4E46A0;" d="M216.238,341.175c0,0,9.412-19.954,28.425-15.859s11.446,20.39-2.467,20.39
						S220.338,345.276,216.238,341.175z"/>
				</g>
				<g>
					<g>
						<path style="fill:#3F3B8E;" d="M200.477,390.71l-2.546-0.35c0.11-0.794,2.818-19.534,15.011-28.631
							c5.413-4.039,11.858-5.519,19.147-4.406l-0.388,2.54c-6.583-1.008-12.381,0.313-17.222,3.925
							C203.139,372.249,200.503,390.527,200.477,390.71z"/>
					</g>
					<path style="fill:#3F3B8E;" d="M223.15,358.507c0,0,14.269-11.924,26.193,0c11.923,11.924-7.005,14.351-16.226,9.593
						C223.895,363.342,223.15,358.507,223.15,358.507z"/>
				</g>
				<polygon style="fill:#DC4467;" points="218.758,450.084 171.341,450.084 163.582,384.258 226.517,384.258 				"/>
				<g>
					
						<ellipse transform="matrix(0.9217 -0.3879 0.3879 0.9217 2.8624 254.7063)" style="fill:#DC4467;" cx="632.42" cy="120.262" rx="21.971" ry="21.971"/>
					<polygon style="fill:#4E46A0;" points="623.632,120.262 623.632,107.835 634.394,114.049 645.157,120.262 634.394,126.476 
						623.632,132.689 					"/>
				</g>
				<g>
					<rect x="549.297" y="158.816" style="fill:#BBC7DA;" width="135.132" height="49.385"/>
					<rect x="554.537" y="164.895" style="fill:#F9F9FB;" width="37.226" height="37.227"/>
					<g>
						<rect x="599.941" y="167.302" style="fill:#F9F9FB;" width="75.438" height="4.814"/>
						<rect x="599.941" y="181.101" style="fill:#F9F9FB;" width="75.438" height="4.814"/>
						<rect x="599.941" y="194.9" style="fill:#F9F9FB;" width="75.438" height="4.814"/>
					</g>
				</g>
				<g>
					<polygon style="fill:#BBC7DA;" points="200.645,125.857 200.645,118.951 165.002,118.951 165.002,143.622 200.645,143.622 
						200.645,136.716 215.068,142.157 215.068,131.286 215.068,120.416 					"/>
					
						<ellipse transform="matrix(0.2298 -0.9732 0.9732 0.2298 24.5553 252.1693)" style="fill:#BBC7DA;" cx="171.593" cy="110.571" rx="7.508" ry="7.508"/>
					
						<ellipse transform="matrix(0.7071 -0.7071 0.7071 0.7071 -21.7239 168.6962)" style="fill:#BBC7DA;" cx="192.772" cy="110.571" rx="7.508" ry="7.508"/>
				</g>
			</g>
		</g>
	</g>
</g>
</svg>
